<svg width="50" height="30" viewBox="0 0 50 30" fill="none" xmlns="http://www.w3.org/2000/svg">
<path d="M19.994 4.20898H17.8961C15.478 4.20898 14.2082 5.47878 14.2082 7.88586V9.98378C14.2082 12.3909 15.478 13.6607 17.8851 13.6607H19.983C22.3901 13.6607 23.6599 12.3909 23.6599 9.98378V7.88586C23.6709 5.47878 22.4011 4.20898 19.994 4.20898Z" fill="white"/>
<path d="M32.6151 4.20898H30.5172C28.1101 4.20898 26.8403 5.47878 26.8403 7.88586V9.98378C26.8403 12.3909 28.1101 13.6607 30.5172 13.6607H32.6151C35.0222 13.6607 36.292 12.3909 36.292 9.98378V7.88586C36.292 5.47878 35.0222 4.20898 32.6151 4.20898Z" fill="white"/>
<path d="M32.6151 16.8292H30.5172C28.1101 16.8292 26.8403 18.099 26.8403 20.5061V22.604C26.8403 25.0111 28.1101 26.2809 30.5172 26.2809H32.6151C35.0222 26.2809 36.292 25.0111 36.292 22.604V20.5061C36.292 18.099 35.0222 16.8292 32.6151 16.8292Z" fill="white"/>
<path d="M19.994 16.8292H17.8961C15.478 16.8292 14.2082 18.099 14.2082 20.5061V22.604C14.2082 25.0221 15.478 26.2919 17.8851 26.2919H19.983C22.3901 26.2919 23.6599 25.0221 23.6599 22.6151V20.5171C23.6709 18.099 22.4011 16.8292 19.994 16.8292Z" fill="white"/>
</svg>
