<svg width="38" height="38" viewBox="0 0 38 38" fill="none" xmlns="http://www.w3.org/2000/svg">
<path d="M23.7425 21.7575C23.4705 21.4855 23.0295 21.4855 22.7576 21.7575C22.4856 22.0295 22.4856 22.4704 22.7576 22.7424L23.7425 21.7575ZM26.5075 26.4924C26.7795 26.7644 27.2205 26.7644 27.4924 26.4925C27.7644 26.2205 27.7644 25.7795 27.4925 25.5076L26.5075 26.4924ZM23.25 22.25L22.7576 22.7424L26.5075 26.4924L27 26L27.4925 25.5076L23.7425 21.7575L23.25 22.25ZM18.4286 23.8571V23.1607C15.2628 23.1607 12.6964 20.5943 12.6964 17.4286H12H11.3036C11.3036 21.3636 14.4936 24.5535 18.4286 24.5535V23.8571ZM24.8572 17.4286H24.1607C24.1607 20.5943 21.5944 23.1607 18.4286 23.1607V23.8571V24.5535C22.3636 24.5535 25.5536 21.3636 25.5536 17.4286H24.8572ZM18.4286 11V11.6964C21.5944 11.6964 24.1607 14.2628 24.1607 17.4286H24.8572H25.5536C25.5536 13.4935 22.3636 10.3036 18.4286 10.3036V11ZM18.4286 11V10.3036C14.4936 10.3036 11.3036 13.4935 11.3036 17.4286H12H12.6964C12.6964 14.2628 15.2628 11.6964 18.4286 11.6964V11Z" fill="#828282"/>
</svg>
